<?xml version="1.0" encoding="utf-8"?>
<!-- Generator: Adobe Illustrator 21.0.2, SVG Export Plug-In . SVG Version: 6.00 Build 0)  -->
<svg version="1.1" id="Layer_1" xmlns="http://www.w3.org/2000/svg" xmlns:xlink="http://www.w3.org/1999/xlink" x="0px" y="0px"
	 viewBox="0 0 52 52" style="enable-background:new 0 0 52 52;" xml:space="preserve">
<style type="text/css">
	.st0{fill:#FFFFFF;}
</style>
<g>
	<path class="st0" d="M35.8,16.2L28.5,5.9l0,0l-1.3-1.8C22,4,16.6,5.7,11.8,9.2C1.2,16.8-2.2,30.1,4.2,39l3.1-2.3l21.8-14l0.1,0.1
		l-14,21.8L13,47.8c8.9,6.4,22.2,3,29.8-7.5c3.5-4.8,5.1-10.3,5.1-15.4l-1.8-1.3l0,0L35.8,16.2L35.8,16.2z M10.4,17.1
		c1.1-1.1,2.9-1.1,4,0c1.1,1.1,1.1,2.9,0,4c-1.1,1.1-2.9,1.1-4,0C9.3,20,9.3,18.2,10.4,17.1z M5.2,30.6c-1-1-1-2.6,0-3.6
		c1-1,2.6-1,3.6,0s1,2.6,0,3.6C7.8,31.6,6.2,31.6,5.2,30.6z M20.2,16.1c-1.2-1.2-1.2-3.2,0-4.4c1.2-1.2,3.2-1.2,4.4,0
		c1.2,1.2,1.2,3.2,0,4.4C23.4,17.3,21.4,17.3,20.2,16.1z M40.4,27.4c1.2,1.2,1.2,3.2,0,4.4c-1.2,1.2-3.2,1.2-4.4,0
		c-1.2-1.2-1.2-3.2,0-4.4C37.2,26.2,39.2,26.2,40.4,27.4z M21.4,46.8c-1-1-1-2.6,0-3.6c1-1,2.6-1,3.6,0s1,2.6,0,3.6
		C24,47.8,22.4,47.8,21.4,46.8z M30.9,41.6c-1.1-1.1-1.1-2.9,0-4c1.1-1.1,2.9-1.1,4,0c1.1,1.1,1.1,2.9,0,4
		C33.8,42.7,32,42.7,30.9,41.6z"/>
	<path class="st0" d="M47.9,21.8l-10.3-7.4L30.2,4.1c0,0,0,0,0.1,0c0.2,0,0.4,0,0.6,0c0,0,0.1,0,0.1,0c0.2,0,0.4,0,0.6,0
		c0.1,0,0.2,0,0.3,0c0.1,0,0.3,0,0.4,0c0.1,0,0.2,0,0.3,0c0.2,0,0.4,0.1,0.6,0.1c0.1,0,0.2,0,0.3,0.1c0.1,0,0.2,0,0.4,0.1
		c0.1,0,0.2,0,0.3,0.1c0.2,0,0.4,0.1,0.6,0.1c0.1,0,0.1,0,0.2,0.1c0.2,0,0.3,0.1,0.5,0.1c0.1,0,0.1,0,0.2,0.1
		c0.2,0.1,0.5,0.1,0.7,0.2l1.2-3.5c0.1-0.2,0.1-0.3,0.2-0.4c0.3-0.3,0.7-0.4,1-0.2c0.5,0.2,0.8,0.7,0.6,1.3L38.3,6c0,0,0,0,0,0
		c0.2,0.1,0.4,0.2,0.6,0.3c0,0,0,0,0.1,0c0.2,0.1,0.3,0.2,0.5,0.3c0.1,0,0.1,0.1,0.2,0.1c0.1,0.1,0.2,0.2,0.4,0.2
		C40,7,40.1,7,40.2,7.1c0.1,0.1,0.3,0.2,0.4,0.3c0,0,0.1,0.1,0.1,0.1c0.2,0.1,0.3,0.2,0.5,0.4c0,0,0.1,0.1,0.1,0.1
		c0.1,0.1,0.2,0.2,0.4,0.3c0.1,0,0.1,0.1,0.2,0.1c0.1,0.1,0.2,0.2,0.3,0.3c0,0,0.1,0.1,0.1,0.1c0.2,0.1,0.3,0.3,0.5,0.4
		c0.2,0.2,0.3,0.3,0.4,0.5c0,0,0.1,0.1,0.1,0.1c0.1,0.1,0.2,0.2,0.3,0.3c0.1,0.1,0.1,0.1,0.1,0.2c0.1,0.1,0.2,0.2,0.3,0.4
		c0,0,0.1,0.1,0.1,0.1c0.1,0.2,0.2,0.3,0.4,0.5c0,0,0.1,0.1,0.1,0.1c0.1,0.1,0.2,0.3,0.3,0.4c0,0.1,0.1,0.1,0.1,0.2
		c0.1,0.1,0.2,0.2,0.2,0.4c0,0.1,0.1,0.1,0.1,0.2c0.1,0.2,0.2,0.3,0.3,0.5c0,0,0,0,0,0.1c0.1,0.2,0.2,0.4,0.3,0.6c0,0,0,0,0,0
		l3.7-1.2c0.5-0.2,1.1,0.1,1.3,0.6c0.1,0.4,0,0.8-0.2,1c-0.1,0.1-0.2,0.2-0.4,0.2l-3.5,1.2c0.1,0.2,0.2,0.5,0.2,0.7
		c0,0.1,0,0.1,0.1,0.2c0.1,0.2,0.1,0.3,0.1,0.5c0,0.1,0,0.1,0.1,0.2c0.1,0.2,0.1,0.4,0.1,0.6c0,0.1,0,0.2,0.1,0.3
		c0,0.1,0.1,0.2,0.1,0.4c0,0.1,0,0.2,0.1,0.3c0,0.2,0.1,0.4,0.1,0.6c0,0.1,0,0.2,0,0.3c0,0.1,0,0.3,0,0.4c0,0.1,0,0.2,0,0.3
		c0,0.2,0,0.4,0,0.6c0,0,0,0.1,0,0.1C47.9,21.3,47.9,21.5,47.9,21.8C47.9,21.7,47.9,21.7,47.9,21.8z"/>
</g>
</svg>
