<?xml version="1.0" encoding="utf-8"?>
<!-- Generator: Adobe Illustrator 21.0.2, SVG Export Plug-In . SVG Version: 6.00 Build 0)  -->
<svg version="1.1" id="Layer_1" xmlns="http://www.w3.org/2000/svg" xmlns:xlink="http://www.w3.org/1999/xlink" x="0px" y="0px"
	 viewBox="0 0 518 147" style="enable-background:new 0 0 518 147;" xml:space="preserve">
<style type="text/css">
	.st0{fill:#FFFFFF;}
</style>
<g>
	<path class="st0" d="M96.1,46.7L76.4,19.4l0,0l-3.4-4.7c-13.6-0.1-28.2,4.3-41,13.5c-28,20.2-37,55.6-20,79.2l8.3-6l57.9-37.1
		l0.2,0.2l-37.1,57.9l-6,8.3c23.6,17,59.1,8,79.2-20c9.2-12.8,13.6-27.3,13.5-41l-4.7-3.4l0,0L96.1,46.7L96.1,46.7z M28.6,49.2
		c2.9-2.9,7.7-2.9,10.7,0c2.9,2.9,2.9,7.7,0,10.7c-2.9,2.9-7.7,2.9-10.7,0C25.6,56.9,25.6,52.2,28.6,49.2z M14.6,85.1
		c-2.6-2.6-2.6-6.9,0-9.5c2.6-2.6,6.9-2.6,9.5,0c2.6,2.6,2.6,6.9,0,9.5C21.5,87.8,17.2,87.8,14.6,85.1z M54.4,46.4
		c-3.3-3.3-3.3-8.5,0-11.8c3.2-3.2,8.5-3.2,11.8,0c3.2,3.2,3.2,8.5,0,11.8C62.9,49.7,57.7,49.7,54.4,46.4z M108.2,76.6
		c3.3,3.3,3.3,8.5,0,11.8c-3.3,3.3-8.5,3.3-11.8,0c-3.2-3.2-3.2-8.5,0-11.8C99.6,73.4,104.9,73.4,108.2,76.6z M57.7,128.2
		c-2.6-2.6-2.6-6.9,0-9.5c2.6-2.6,6.9-2.6,9.5,0c2.6,2.6,2.6,6.9,0,9.5C64.6,130.9,60.3,130.9,57.7,128.2z M82.9,114.2
		c-2.9-2.9-2.9-7.7,0-10.7c2.9-2.9,7.7-2.9,10.7,0c2.9,2.9,2.9,7.7,0,10.7C90.6,117.2,85.9,117.2,82.9,114.2z"/>
	<path class="st0" d="M126.8,62.9L99.6,43.2L79.9,16c0.1,0,0.1,0,0.2,0c0.6,0,1.1,0,1.7,0.1c0.1,0,0.2,0,0.3,0
		c0.6,0,1.1,0.1,1.7,0.1c0.3,0,0.5,0.1,0.8,0.1c0.3,0,0.7,0.1,1,0.1c0.3,0,0.6,0.1,0.8,0.1c0.5,0.1,1,0.2,1.5,0.2
		c0.3,0,0.6,0.1,0.9,0.2c0.3,0.1,0.6,0.1,0.9,0.2c0.3,0.1,0.5,0.1,0.8,0.2c0.5,0.1,1.1,0.2,1.6,0.4c0.2,0.1,0.4,0.1,0.5,0.2
		c0.4,0.1,0.9,0.2,1.4,0.4c0.1,0,0.3,0.1,0.4,0.1c0.6,0.2,1.2,0.4,1.8,0.6l3.2-9.4c0.1-0.4,0.4-0.7,0.6-1c0.7-0.7,1.7-1,2.7-0.6
		c1.4,0.5,2.1,2,1.7,3.4l-3.3,9.8c0,0,0,0,0.1,0c0.5,0.3,1,0.5,1.5,0.8c0.1,0,0.1,0.1,0.2,0.1c0.4,0.2,0.8,0.5,1.3,0.7
		c0.2,0.1,0.3,0.2,0.5,0.3c0.3,0.2,0.6,0.4,1,0.6c0.2,0.1,0.3,0.2,0.5,0.3c0.4,0.2,0.7,0.5,1.1,0.7c0.1,0.1,0.2,0.1,0.3,0.2
		c0.4,0.3,0.9,0.6,1.3,1c0.1,0.1,0.2,0.2,0.4,0.3c0.3,0.2,0.6,0.5,1,0.8c0.2,0.1,0.3,0.2,0.4,0.4c0.3,0.3,0.6,0.5,0.9,0.8
		c0.1,0.1,0.3,0.2,0.4,0.4c0.4,0.4,0.8,0.8,1.2,1.2c0.4,0.4,0.8,0.8,1.2,1.2c0.1,0.1,0.2,0.3,0.4,0.4c0.3,0.3,0.5,0.6,0.8,0.9
		c0.1,0.1,0.3,0.3,0.4,0.4c0.3,0.3,0.5,0.6,0.8,1c0.1,0.1,0.2,0.2,0.3,0.4c0.3,0.4,0.7,0.9,1,1.3c0.1,0.1,0.2,0.2,0.2,0.3
		c0.2,0.4,0.5,0.7,0.7,1.1c0.1,0.2,0.2,0.3,0.3,0.5c0.2,0.3,0.4,0.6,0.6,1c0.1,0.2,0.2,0.3,0.3,0.5c0.2,0.4,0.5,0.8,0.7,1.3
		c0,0.1,0.1,0.1,0.1,0.2c0.3,0.5,0.5,1,0.8,1.5c0,0,0,0,0,0.1l9.8-3.3c1.4-0.5,2.9,0.3,3.4,1.7c0.3,1,0.1,2-0.6,2.7
		c-0.3,0.3-0.6,0.5-1,0.6l-9.4,3.2c0.2,0.6,0.4,1.2,0.6,1.8c0,0.1,0.1,0.3,0.1,0.4c0.1,0.5,0.3,0.9,0.4,1.4c0.1,0.2,0.1,0.4,0.2,0.5
		c0.1,0.5,0.3,1.1,0.4,1.6c0.1,0.3,0.1,0.5,0.2,0.8c0.1,0.3,0.1,0.6,0.2,0.9c0.1,0.3,0.1,0.6,0.2,0.9c0.1,0.5,0.2,1,0.2,1.5
		c0,0.3,0.1,0.6,0.1,0.8c0,0.3,0.1,0.7,0.1,1c0,0.3,0.1,0.5,0.1,0.8c0.1,0.6,0.1,1.1,0.1,1.7c0,0.1,0,0.2,0,0.3
		c0,0.6,0.1,1.1,0.1,1.7C126.8,62.8,126.8,62.8,126.8,62.9z"/>
</g>
<path class="st0" d="M181.4,60.8L169.7,67c-1.8-3.8-4.1-5.7-6.9-5.7c-1.3,0-2.4,0.4-3.3,1.3c-0.9,0.9-1.4,2-1.4,3.3
	c0,2.3,2.7,4.7,8.2,7c7.5,3.2,12.6,6.2,15.2,8.9c2.6,2.7,3.9,6.4,3.9,11c0,5.9-2.2,10.9-6.5,14.8c-4.2,3.8-9.4,5.7-15.3,5.7
	c-10.3,0-17.6-5-21.8-15l12.1-5.6c1.7,2.9,3,4.8,3.8,5.6c1.7,1.6,3.8,2.4,6.2,2.4c4.8,0,7.2-2.2,7.2-6.5c0-2.5-1.8-4.9-5.5-7
	c-1.4-0.7-2.9-1.4-4.3-2.1c-1.4-0.7-2.9-1.4-4.3-2.1c-4.1-2-7-4-8.7-6c-2.1-2.6-3.2-5.9-3.2-9.9c0-5.3,1.8-9.7,5.5-13.2
	c3.7-3.5,8.3-5.2,13.6-5.2C171.7,48.7,177.5,52.7,181.4,60.8z"/>
<path class="st0" d="M246.1,84.3h-43.9c0.4,5,2,9,4.9,12c2.9,2.9,6.6,4.4,11.1,4.4c3.5,0,6.4-0.8,8.7-2.5c2.3-1.7,4.8-4.8,7.7-9.3
	l12,6.7c-1.8,3.1-3.8,5.8-5.9,8.1c-2.1,2.2-4.3,4.1-6.6,5.5c-2.3,1.4-4.9,2.5-7.6,3.2c-2.7,0.7-5.7,1-8.9,1c-9.1,0-16.5-2.9-22-8.8
	c-5.5-5.9-8.3-13.8-8.3-23.5c0-9.7,2.7-17.5,8.1-23.5c5.4-5.9,12.6-8.9,21.5-8.9c9,0,16.1,2.9,21.4,8.6c5.2,5.7,7.8,13.6,7.8,23.7
	L246.1,84.3z M231.6,72.8c-2-7.5-6.7-11.3-14.3-11.3c-1.7,0-3.3,0.3-4.8,0.8s-2.9,1.3-4.1,2.3c-1.2,1-2.3,2.2-3.2,3.6
	c-0.9,1.4-1.6,3-2,4.7H231.6z"/>
<path class="st0" d="M250.9,80.6c0-8.8,3.2-16.4,9.5-22.6c6.3-6.2,14-9.3,23.2-9.3c9.1,0,16.9,3.1,23.3,9.4c6.3,6.2,9.4,13.9,9.4,23
	c0,9.2-3.2,16.9-9.5,23.1c-6.4,6.2-14.2,9.2-23.5,9.2c-9.2,0-16.9-3.1-23.1-9.4C254,97.8,250.9,90,250.9,80.6z M265.4,80.8
	c0,6.1,1.6,11,4.9,14.5c3.4,3.6,7.8,5.4,13.3,5.4c5.5,0,10-1.8,13.3-5.3c3.3-3.6,5-8.3,5-14.3s-1.7-10.7-5-14.3
	c-3.4-3.6-7.8-5.4-13.3-5.4c-5.4,0-9.8,1.8-13.1,5.4C267.1,70.5,265.4,75.1,265.4,80.8z"/>
<path class="st0" d="M368.7,50.4h14.2v61.3h-14.2v-6.4c-5.8,5.5-12.1,8.2-18.8,8.2c-8.5,0-15.5-3.1-21-9.2c-5.5-6.2-8.2-14-8.2-23.4
	c0-9.2,2.7-16.8,8.2-23c5.5-6.1,12.4-9.2,20.6-9.2c7.1,0,13.5,2.9,19.2,8.8V50.4z M335.1,80.8c0,5.9,1.6,10.7,4.7,14.3
	c3.2,3.7,7.3,5.6,12.2,5.6c5.2,0,9.5-1.8,12.7-5.4c3.2-3.7,4.8-8.5,4.8-14.2s-1.6-10.5-4.8-14.2c-3.2-3.6-7.4-5.5-12.6-5.5
	c-4.9,0-8.9,1.8-12.2,5.5C336.7,70.7,335.1,75.3,335.1,80.8z"/>
<path class="st0" d="M390.7,28.2h-16.8l8.1-13.7h23.4v97.1h-14.7V28.2z"/>
<path class="st0" d="M425.6,28.2h-16.8l8.1-13.7h23.4v97.1h-14.7V28.2z"/>
<path class="st0" d="M472.7,100.3l-27.6-49.9h16.4l18.7,35.2l17.5-35.2h16L465,145h-16.2L472.7,100.3z"/>
<path class="st0" d="M148.8,135.6l-4.3-7.3h2.5l2.9,5.2l2.7-5.2h2.5l-7.6,13.9h-2.5L148.8,135.6z"/>
<path class="st0" d="M155.1,132.7c0-1.3,0.5-2.4,1.5-3.3c1-0.9,2.2-1.4,3.6-1.4c1.4,0,2.6,0.5,3.6,1.4c1,0.9,1.5,2,1.5,3.4
	c0,1.4-0.5,2.5-1.5,3.4c-1,0.9-2.2,1.4-3.6,1.4c-1.4,0-2.6-0.5-3.6-1.4C155.5,135.2,155.1,134.1,155.1,132.7z M157.3,132.7
	c0,0.9,0.3,1.6,0.8,2.1c0.5,0.5,1.2,0.8,2.1,0.8c0.9,0,1.5-0.3,2.1-0.8s0.8-1.2,0.8-2.1c0-0.9-0.3-1.6-0.8-2.1
	c-0.5-0.5-1.2-0.8-2.1-0.8c-0.8,0-1.5,0.3-2,0.8C157.6,131.2,157.3,131.9,157.3,132.7z"/>
<path class="st0" d="M168.5,128.3v5.2c0,1.5,0.6,2.2,1.9,2.2c1.2,0,1.9-0.7,1.9-2.2v-5.2h2.2v5.2c0,0.7-0.1,1.3-0.3,1.9
	c-0.2,0.5-0.5,0.9-0.9,1.3c-0.7,0.6-1.7,0.9-2.8,0.9c-1.1,0-2.1-0.3-2.8-0.9c-0.5-0.4-0.8-0.8-1-1.3c-0.2-0.4-0.3-1-0.3-1.9v-5.2
	H168.5z"/>
<path class="st0" d="M176,128.3h2.2v0.8c0.4-0.4,0.8-0.7,1.1-0.8c0.3-0.2,0.7-0.2,1.1-0.2c0.6,0,1.2,0.2,1.8,0.5l-1,1.9
	c-0.4-0.3-0.8-0.4-1.2-0.4c-1.2,0-1.8,0.9-1.8,2.6v4.7H176V128.3z"/>
<path class="st0" d="M191.8,130.2v7.1h-2.2v-7.1h-0.8v-1.9h0.8v-3.5c0-1.1,0.2-1.9,0.6-2.4c0.6-0.7,1.4-1,2.5-1
	c0.4,0,0.9,0.1,1.5,0.3v2.1l-0.2-0.1c-0.5-0.2-0.9-0.3-1.2-0.3c-0.4,0-0.7,0.1-0.8,0.4c-0.1,0.3-0.2,0.8-0.2,1.5v3h2.4v1.9H191.8z"
	/>
<path class="st0" d="M195.5,128.3h2.2v0.8c0.4-0.4,0.8-0.7,1.1-0.8c0.3-0.2,0.7-0.2,1.1-0.2c0.6,0,1.2,0.2,1.8,0.5l-1,1.9
	c-0.4-0.3-0.8-0.4-1.2-0.4c-1.2,0-1.8,0.9-1.8,2.6v4.7h-2.2V128.3z"/>
<path class="st0" d="M202.1,124.5c0-0.4,0.1-0.7,0.4-0.9c0.3-0.3,0.6-0.4,1-0.4c0.4,0,0.7,0.1,1,0.4c0.3,0.3,0.4,0.6,0.4,1
	c0,0.4-0.1,0.7-0.4,1c-0.3,0.3-0.6,0.4-1,0.4s-0.7-0.1-1-0.4S202.1,124.9,202.1,124.5z M204.6,128.3v9h-2.2v-9H204.6z"/>
<path class="st0" d="M214.9,133.3h-6.8c0.1,0.7,0.3,1.3,0.8,1.8c0.4,0.4,1,0.6,1.7,0.6c0.5,0,1-0.1,1.4-0.4c0.4-0.2,0.8-0.7,1.2-1.4
	l1.9,1c-0.3,0.5-0.6,0.9-0.9,1.2c-0.3,0.3-0.7,0.6-1,0.8c-0.4,0.2-0.8,0.4-1.2,0.5s-0.9,0.1-1.4,0.1c-1.4,0-2.6-0.4-3.4-1.3
	c-0.9-0.9-1.3-2-1.3-3.5c0-1.4,0.4-2.6,1.2-3.5c0.8-0.9,1.9-1.3,3.3-1.3c1.4,0,2.5,0.4,3.3,1.3c0.8,0.8,1.2,2,1.2,3.5L214.9,133.3z
	 M212.6,131.6c-0.3-1.1-1-1.7-2.2-1.7c-0.3,0-0.5,0-0.8,0.1c-0.2,0.1-0.4,0.2-0.6,0.3c-0.2,0.1-0.4,0.3-0.5,0.5
	c-0.1,0.2-0.2,0.4-0.3,0.7H212.6z"/>
<path class="st0" d="M216.1,128.3h2.2v0.8c0.8-0.7,1.6-1.1,2.6-1.1c1.1,0,2,0.3,2.6,1c0.5,0.6,0.8,1.5,0.8,2.8v5.5H222v-5
	c0-0.9-0.1-1.5-0.4-1.8c-0.3-0.3-0.7-0.5-1.4-0.5c-0.7,0-1.2,0.2-1.5,0.7c-0.3,0.5-0.4,1.2-0.4,2.4v4.4h-2.2V128.3z"/>
<path class="st0" d="M232.8,121.6h2.2v15.6h-2.2v-0.9c-0.9,0.8-1.8,1.2-2.9,1.2c-1.3,0-2.4-0.5-3.2-1.4c-0.9-0.9-1.3-2.1-1.3-3.4
	c0-1.3,0.4-2.5,1.3-3.4c0.8-0.9,1.9-1.4,3.2-1.4c1.1,0,2.1,0.4,3,1.3V121.6z M227.6,132.7c0,0.9,0.2,1.6,0.7,2.1
	c0.5,0.5,1.1,0.8,1.9,0.8c0.8,0,1.5-0.3,2-0.8c0.5-0.5,0.7-1.2,0.7-2.1c0-0.8-0.2-1.5-0.7-2.1c-0.5-0.5-1.1-0.8-1.9-0.8
	c-0.8,0-1.4,0.3-1.9,0.8C227.8,131.3,227.6,131.9,227.6,132.7z"/>
<path class="st0" d="M238.8,121.6v15.6h-2.2v-15.6H238.8z"/>
<path class="st0" d="M244.3,135.6l-4.3-7.3h2.5l2.9,5.2l2.7-5.2h2.5l-7.6,13.9h-2.5L244.3,135.6z"/>
<path class="st0" d="M257.5,128.3h2.2v0.8c0.8-0.7,1.6-1.1,2.6-1.1c1.1,0,2,0.3,2.6,1c0.5,0.6,0.8,1.5,0.8,2.8v5.5h-2.2v-5
	c0-0.9-0.1-1.5-0.4-1.8c-0.3-0.3-0.7-0.5-1.4-0.5c-0.7,0-1.2,0.2-1.5,0.7c-0.3,0.5-0.4,1.2-0.4,2.4v4.4h-2.2V128.3z"/>
<path class="st0" d="M275.9,133.3h-6.8c0.1,0.7,0.3,1.3,0.8,1.8c0.4,0.4,1,0.6,1.7,0.6c0.5,0,1-0.1,1.4-0.4c0.4-0.2,0.8-0.7,1.2-1.4
	l1.9,1c-0.3,0.5-0.6,0.9-0.9,1.2s-0.7,0.6-1,0.8c-0.4,0.2-0.8,0.4-1.2,0.5c-0.4,0.1-0.9,0.1-1.4,0.1c-1.4,0-2.6-0.4-3.4-1.3
	c-0.9-0.9-1.3-2-1.3-3.5c0-1.4,0.4-2.6,1.2-3.5c0.8-0.9,1.9-1.3,3.3-1.3c1.4,0,2.5,0.4,3.3,1.3c0.8,0.8,1.2,2,1.2,3.5L275.9,133.3z
	 M273.6,131.6c-0.3-1.1-1-1.7-2.2-1.7c-0.3,0-0.5,0-0.8,0.1c-0.2,0.1-0.4,0.2-0.6,0.3c-0.2,0.1-0.4,0.3-0.5,0.5
	c-0.1,0.2-0.2,0.4-0.3,0.7H273.6z"/>
<path class="st0" d="M276.7,124.5c0-0.4,0.1-0.7,0.4-0.9c0.3-0.3,0.6-0.4,1-0.4c0.4,0,0.7,0.1,1,0.4c0.3,0.3,0.4,0.6,0.4,1
	c0,0.4-0.1,0.7-0.4,1c-0.3,0.3-0.6,0.4-1,0.4c-0.4,0-0.7-0.1-1-0.4C276.9,125.2,276.7,124.9,276.7,124.5z M279.3,128.3v9h-2.2v-9
	H279.3z"/>
<path class="st0" d="M290,137.1c0,0.4,0,0.8,0,1.1s-0.1,0.6-0.1,0.9c-0.2,0.7-0.5,1.3-0.9,1.7c-0.9,0.9-2,1.4-3.5,1.4
	c-1.3,0-2.3-0.3-3.1-1c-0.8-0.7-1.3-1.6-1.5-2.8h2.2c0.1,0.4,0.2,0.8,0.4,1c0.5,0.6,1.1,0.8,2,0.8c1.6,0,2.4-0.9,2.4-2.8v-1.3
	c-0.9,0.8-1.9,1.3-3,1.3c-1.3,0-2.3-0.4-3.2-1.3c-0.8-0.9-1.2-2-1.2-3.4c0-1.3,0.4-2.4,1.2-3.4c0.8-1,1.9-1.5,3.3-1.5
	c1.2,0,2.2,0.4,3,1.3v-1h2.2V137.1z M287.9,132.8c0-0.9-0.2-1.6-0.7-2.1c-0.5-0.5-1.1-0.8-1.9-0.8c-0.8,0-1.5,0.3-2,0.9
	c-0.4,0.5-0.7,1.2-0.7,2c0,0.8,0.2,1.5,0.7,2c0.5,0.6,1.1,0.9,2,0.9c0.8,0,1.5-0.3,2-0.9C287.7,134.3,287.9,133.6,287.9,132.8z"/>
<path class="st0" d="M291.2,121.6h2.2v7.4c0.8-0.7,1.6-1,2.6-1c1.1,0,1.9,0.3,2.6,1c0.5,0.6,0.8,1.5,0.8,2.8v5.5h-2.2v-5.3
	c0-0.7-0.1-1.2-0.4-1.6s-0.7-0.5-1.3-0.5c-0.8,0-1.3,0.2-1.6,0.7c-0.3,0.5-0.5,1.2-0.5,2.4v4.4h-2.2V121.6z"/>
<path class="st0" d="M302.7,121.6v7.7c0.9-0.9,1.9-1.3,3-1.3c1.3,0,2.3,0.5,3.2,1.4c0.9,0.9,1.3,2,1.3,3.4c0,1.4-0.4,2.5-1.3,3.4
	c-0.9,0.9-1.9,1.4-3.2,1.4c-1.1,0-2.1-0.4-2.9-1.2v0.9h-2.2v-15.6H302.7z M307.9,132.8c0-0.9-0.2-1.6-0.7-2.1
	c-0.5-0.6-1.1-0.8-1.9-0.8c-0.8,0-1.5,0.3-2,0.8c-0.5,0.5-0.8,1.2-0.8,2.1c0,0.9,0.2,1.6,0.7,2.1c0.5,0.5,1.1,0.8,1.9,0.8
	c0.8,0,1.4-0.3,1.9-0.8C307.7,134.3,307.9,133.7,307.9,132.8z"/>
<path class="st0" d="M310.8,132.7c0-1.3,0.5-2.4,1.5-3.3s2.2-1.4,3.6-1.4c1.4,0,2.6,0.5,3.6,1.4c1,0.9,1.5,2,1.5,3.4
	c0,1.4-0.5,2.5-1.5,3.4c-1,0.9-2.2,1.4-3.6,1.4c-1.4,0-2.6-0.5-3.6-1.4C311.3,135.2,310.8,134.1,310.8,132.7z M313.1,132.7
	c0,0.9,0.3,1.6,0.8,2.1c0.5,0.5,1.2,0.8,2.1,0.8c0.9,0,1.5-0.3,2.1-0.8s0.8-1.2,0.8-2.1c0-0.9-0.3-1.6-0.8-2.1
	c-0.5-0.5-1.2-0.8-2.1-0.8c-0.8,0-1.5,0.3-2,0.8C313.3,131.2,313.1,131.9,313.1,132.7z"/>
<path class="st0" d="M322.1,128.3h2.2v0.8c0.4-0.4,0.8-0.7,1.1-0.8c0.3-0.2,0.7-0.2,1.1-0.2c0.6,0,1.2,0.2,1.8,0.5l-1,1.9
	c-0.4-0.3-0.8-0.4-1.2-0.4c-1.2,0-1.8,0.9-1.8,2.6v4.7h-2.2V128.3z"/>
<path class="st0" d="M329,121.6h2.2v7.4c0.8-0.7,1.6-1,2.6-1c1.1,0,1.9,0.3,2.6,1c0.5,0.6,0.8,1.5,0.8,2.8v5.5H335v-5.3
	c0-0.7-0.1-1.2-0.4-1.6s-0.7-0.5-1.3-0.5c-0.8,0-1.3,0.2-1.6,0.7c-0.3,0.5-0.5,1.2-0.5,2.4v4.4H329V121.6z"/>
<path class="st0" d="M337.9,132.7c0-1.3,0.5-2.4,1.5-3.3s2.2-1.4,3.6-1.4c1.4,0,2.6,0.5,3.6,1.4c1,0.9,1.5,2,1.5,3.4
	c0,1.4-0.5,2.5-1.5,3.4c-1,0.9-2.2,1.4-3.6,1.4c-1.4,0-2.6-0.5-3.6-1.4C338.4,135.2,337.9,134.1,337.9,132.7z M340.2,132.7
	c0,0.9,0.3,1.6,0.8,2.1c0.5,0.5,1.2,0.8,2.1,0.8c0.9,0,1.5-0.3,2.1-0.8s0.8-1.2,0.8-2.1c0-0.9-0.3-1.6-0.8-2.1
	c-0.5-0.5-1.2-0.8-2.1-0.8c-0.8,0-1.5,0.3-2,0.8C340.4,131.2,340.2,131.9,340.2,132.7z"/>
<path class="st0" d="M349.1,132.7c0-1.3,0.5-2.4,1.5-3.3s2.2-1.4,3.6-1.4c1.4,0,2.6,0.5,3.6,1.4c1,0.9,1.5,2,1.5,3.4
	c0,1.4-0.5,2.5-1.5,3.4c-1,0.9-2.2,1.4-3.6,1.4c-1.4,0-2.6-0.5-3.6-1.4C349.6,135.2,349.1,134.1,349.1,132.7z M351.4,132.7
	c0,0.9,0.3,1.6,0.8,2.1c0.5,0.5,1.2,0.8,2.1,0.8c0.9,0,1.5-0.3,2.1-0.8s0.8-1.2,0.8-2.1c0-0.9-0.3-1.6-0.8-2.1
	c-0.5-0.5-1.2-0.8-2.1-0.8c-0.8,0-1.5,0.3-2,0.8C351.6,131.2,351.4,131.9,351.4,132.7z"/>
<path class="st0" d="M367.8,121.6h2.2v15.6h-2.2v-0.9c-0.9,0.8-1.8,1.2-2.9,1.2c-1.3,0-2.4-0.5-3.2-1.4c-0.8-0.9-1.3-2.1-1.3-3.4
	c0-1.3,0.4-2.5,1.3-3.4c0.8-0.9,1.9-1.4,3.2-1.4c1.1,0,2.1,0.4,3,1.3V121.6z M362.6,132.7c0,0.9,0.2,1.6,0.7,2.1
	c0.5,0.5,1.1,0.8,1.9,0.8c0.8,0,1.5-0.3,2-0.8c0.5-0.5,0.8-1.2,0.8-2.1c0-0.8-0.2-1.5-0.8-2.1c-0.5-0.5-1.1-0.8-1.9-0.8
	c-0.8,0-1.4,0.3-1.9,0.8C362.8,131.3,362.6,131.9,362.6,132.7z"/>
<path class="st0" d="M385.9,128.7v2.8c-0.5-0.6-0.9-1-1.3-1.2c-0.4-0.2-0.8-0.3-1.4-0.3c-0.8,0-1.5,0.3-2.1,0.8
	c-0.5,0.5-0.8,1.2-0.8,2.1c0,0.8,0.3,1.5,0.8,2.1c0.5,0.5,1.2,0.8,2,0.8c0.5,0,1-0.1,1.4-0.3c0.4-0.2,0.8-0.6,1.4-1.2v2.7
	c-0.9,0.4-1.8,0.7-2.7,0.7c-1.5,0-2.7-0.5-3.7-1.4c-1-0.9-1.5-2-1.5-3.4c0-1.3,0.5-2.5,1.5-3.4c1-0.9,2.2-1.4,3.7-1.4
	C384.1,128,385,128.2,385.9,128.7z"/>
<path class="st0" d="M387.6,128.3h2.2v0.8c0.4-0.4,0.8-0.7,1.1-0.8c0.3-0.2,0.7-0.2,1.1-0.2c0.6,0,1.2,0.2,1.8,0.5l-1,1.9
	c-0.4-0.3-0.8-0.4-1.2-0.4c-1.2,0-1.8,0.9-1.8,2.6v4.7h-2.2V128.3z"/>
<path class="st0" d="M401.1,128.3h2.2v9h-2.2v-0.9c-0.9,0.8-1.9,1.2-2.9,1.2c-1.3,0-2.4-0.5-3.3-1.4c-0.8-0.9-1.3-2.1-1.3-3.4
	c0-1.4,0.4-2.5,1.3-3.4c0.9-0.9,1.9-1.4,3.2-1.4c1.1,0,2.1,0.4,3,1.3V128.3z M395.9,132.7c0,0.9,0.2,1.6,0.7,2.1
	c0.5,0.5,1.1,0.8,1.9,0.8c0.8,0,1.5-0.3,2-0.8c0.5-0.5,0.8-1.2,0.8-2.1c0-0.8-0.2-1.5-0.8-2.1c-0.5-0.5-1.1-0.8-1.9-0.8
	c-0.8,0-1.4,0.3-1.9,0.8C396.1,131.3,395.9,131.9,395.9,132.7z"/>
<path class="st0" d="M406.6,128.3l2.5,5.1l2.7-6l2.7,6l2.5-5.1h2.5l-5,9.7l-2.6-5.8l-2.7,5.8l-5-9.7H406.6z"/>
<path class="st0" d="M422.4,121.6v15.6h-2.2v-15.6H422.4z"/>
<path class="st0" d="M432.7,133.3h-6.8c0.1,0.7,0.3,1.3,0.8,1.8c0.4,0.4,1,0.6,1.7,0.6c0.5,0,1-0.1,1.4-0.4c0.4-0.2,0.8-0.7,1.2-1.4
	l1.9,1c-0.3,0.5-0.6,0.9-0.9,1.2c-0.3,0.3-0.7,0.6-1,0.8c-0.4,0.2-0.8,0.4-1.2,0.5s-0.9,0.1-1.4,0.1c-1.4,0-2.6-0.4-3.4-1.3
	c-0.9-0.9-1.3-2-1.3-3.5c0-1.4,0.4-2.6,1.2-3.5c0.8-0.9,1.9-1.3,3.3-1.3c1.4,0,2.5,0.4,3.3,1.3c0.8,0.8,1.2,2,1.2,3.5L432.7,133.3z
	 M430.4,131.6c-0.3-1.1-1-1.7-2.2-1.7c-0.3,0-0.5,0-0.7,0.1c-0.2,0.1-0.4,0.2-0.6,0.3c-0.2,0.1-0.4,0.3-0.5,0.5
	c-0.1,0.2-0.2,0.4-0.3,0.7H430.4z"/>
<path class="st0" d="M434.3,128.3h2.2v0.8c0.4-0.4,0.8-0.7,1.1-0.8c0.3-0.2,0.7-0.2,1.1-0.2c0.6,0,1.2,0.2,1.8,0.5l-1,1.9
	c-0.4-0.3-0.8-0.4-1.2-0.4c-1.2,0-1.8,0.9-1.8,2.6v4.7h-2.2V128.3z"/>
</svg>
